<svg width="150" height="71" viewBox="0 0 150 71" fill="none" xmlns="http://www.w3.org/2000/svg"><rect width="150" height="71" fill="#7AC232"/>
<path fill-rule="evenodd" clip-rule="evenodd" d="M99.8576 8.59563L99.4211 10.2409C98.5146 10.3416 97.6077 10.4759 96.7011 10.6774L99.5219 0.134311C100.093 0.100734 100.663 0.067154 101.234 0.0335787H103.014C103.585 0.0335787 104.155 0.0671541 104.726 0.100731L107.547 10.6438C106.674 10.4423 105.767 10.308 104.827 10.2073L104.39 8.56205C103.652 8.4949 102.88 8.46132 102.141 8.46132C101.369 8.4949 100.596 8.52848 99.8576 8.59563ZM102.745 2.55183H101.469L100.529 6.07738C101.066 6.0438 101.57 6.0438 102.107 6.0438C102.644 6.0438 103.148 6.0438 103.685 6.07738L102.745 2.55183ZM26.4925 8.59563L26.0561 10.2409C25.1495 10.3416 24.2428 10.4759 23.3362 10.6774L26.1568 0.134311C26.7276 0.100734 27.2982 0.067154 27.869 0.0335787H29.6489C30.2197 0.0335787 30.7903 0.0671541 31.3611 0.100731L34.1816 10.6438C33.3087 10.4423 32.402 10.308 31.4618 10.2073L31.0254 8.56205C30.2867 8.4949 29.5144 8.46132 28.7757 8.46132C28.037 8.46132 27.2312 8.52848 26.4925 8.59563ZM29.38 2.55183H28.1041L27.1641 6.07738C27.7013 6.0438 28.205 6.0438 28.7422 6.0438C29.2795 6.0438 29.7832 6.0438 30.3204 6.07738L29.38 2.55183ZM58.1554 3.72701V10.6774H60.6736V7.21898C60.6736 7.21898 60.8415 7.28614 60.9087 7.28614C61.043 7.31972 61.3787 7.42044 61.8488 7.42044H63.0912C63.9306 8.46132 64.7361 9.56935 65.4748 10.6774H68.262C67.5233 9.46862 66.7174 8.29344 65.878 7.18541C66.0123 7.15183 66.1131 7.08468 66.2138 7.01752C66.516 6.84964 66.7846 6.68176 67.0532 6.44672L67.1875 6.34599C67.624 5.90949 67.9598 5.37227 68.1277 4.76789C68.1612 4.70073 68.1948 4.53285 68.1948 4.43212C68.2284 4.19708 68.262 3.96205 68.262 3.72701C68.262 2.71971 67.859 1.77956 67.1875 1.10803C66.516 0.436498 65.6094 0.0335787 64.5685 0.0335787H61.8152C60.8079 0.0335787 59.8678 0.436498 59.1963 1.10803C58.5919 1.77956 58.1554 2.68614 58.1554 3.72701ZM64.6021 2.61898C64.9043 2.61898 65.1729 2.75329 65.3744 2.95475C65.5758 3.15621 65.7101 3.42482 65.7101 3.72701C65.7101 4.0292 65.5758 4.29781 65.3744 4.49927C65.1729 4.70073 64.9043 4.83504 64.6021 4.83504H61.8488C61.5466 4.83504 61.278 4.70073 61.0765 4.49927C60.8751 4.29781 60.7408 4.0292 60.7408 3.72701C60.7408 3.42482 60.8751 3.15621 61.0765 2.95475C61.278 2.75329 61.5466 2.61898 61.8488 2.61898H64.6021ZM78.6372 0H80.6518H83.808C84.7145 0 85.554 0.369348 86.1583 0.973728C86.7627 1.57811 87.1317 2.41753 87.1317 3.32409C87.1317 3.92847 86.9642 4.49927 86.662 5.00292C87.2664 5.6073 87.6354 6.44672 87.6354 7.35329C87.6354 8.25986 87.2664 9.09928 86.662 9.70366C86.0576 10.308 85.2182 10.6774 84.3116 10.6774H80.6518H78.805H78.1335V0.0335787H78.6372V0ZM80.6518 4.0292H83.8751C84.043 4.0292 84.1773 3.92847 84.3116 3.82774C84.4459 3.69343 84.5131 3.52555 84.5131 3.32409C84.5131 3.12263 84.4459 2.95475 84.3116 2.82045C84.1773 2.68614 84.0094 2.61898 83.808 2.61898H80.6518V4.0292ZM80.6518 8.0584H84.3116C84.5131 8.0584 84.7145 7.99125 84.8153 7.85694C84.9496 7.72263 85.0167 7.55475 85.0167 7.35329C85.0167 7.15183 84.9496 6.98395 84.8153 6.84964C84.681 6.71533 84.5131 6.64818 84.3116 6.64818H80.6518V8.0584ZM44.7583 10.6774H47.2765V0.0335787H44.7583V10.6774Z" fill="white"/>
<path fill-rule="evenodd" clip-rule="evenodd" d="M9.0995 53.4867H0.738754C0.26868 49.894 0.134373 45.3612 0.0672189 39.6867C0.0672189 37.7728 0 35.9929 0 34.1126V17.4588C0 13.8996 1.44406 10.6763 3.79444 8.3259C6.14481 5.97554 9.36791 4.53174 12.927 4.53174H16.1168V13.5974H12.927C11.8526 13.5974 10.879 14.0339 10.2075 14.7391C9.50235 15.4442 9.06572 16.3843 9.06572 17.4588H16.1168V26.5245H9.06572V39.9217V53.4867H9.0995Z" fill="white"/>
<path fill-rule="evenodd" clip-rule="evenodd" d="M140.758 33.2062C140.355 31.5945 139.549 30.1843 138.408 29.0427C136.83 27.4646 134.614 26.4573 132.162 26.4573C129.745 26.4573 127.529 27.431 125.917 29.0427C124.339 30.6208 123.332 32.8369 123.332 35.2878V53.4867H114.266V35.3217V4.53174H123.332V19.7756C125.917 18.2982 128.939 17.4588 132.129 17.4588C137.064 17.4588 141.53 19.4734 144.787 22.6967C147.675 25.5843 149.555 29.4121 149.958 33.71C150.025 34.5159 149.992 35.3217 149.992 36.1611C149.992 43.9845 149.925 48.9874 149.32 53.5203H140.892V36.2283C140.96 35.0195 141.027 34.348 140.758 33.2062Z" fill="white"/>
<path fill-rule="evenodd" clip-rule="evenodd" d="M28.7764 36.5645V53.4869H19.7107V36.5645V36.1949C19.8114 31.1249 21.8933 26.5249 25.2174 23.1337C28.6086 19.6753 33.3429 17.5264 38.5809 17.4592L38.6816 26.4914C35.9283 26.5249 33.4772 27.6665 31.6642 29.4797C29.8846 31.2928 28.7764 33.7777 28.7764 36.5645Z" fill="white"/>
<path fill-rule="evenodd" clip-rule="evenodd" d="M74.0326 21.7571C70.5742 18.2987 65.8066 16.1498 60.5015 16.1498C55.23 16.1498 50.4285 18.2987 46.9701 21.7571C43.5117 25.2155 41.3628 29.9834 41.3628 35.2886C41.3628 40.5602 43.5117 45.3616 46.9701 48.82C50.4285 52.2784 55.1964 54.4273 60.5015 54.4273C65.773 54.4273 70.5742 52.2784 74.0326 48.82C75.0735 47.7792 76.0139 46.604 76.7862 45.3616H60.5015C57.7146 45.3616 55.2296 44.2536 53.3829 42.4069C52.3756 41.3996 51.6037 40.1908 51.1 38.8478H73.9993H79.2709C79.4723 37.7062 79.6066 36.4974 79.6066 35.2886C79.6066 29.9834 77.491 25.2155 74.0326 21.7571ZM51.1336 31.6622C51.4022 30.9907 51.738 30.3527 52.1073 29.7483C52.4767 29.1775 52.9128 28.6403 53.3829 28.1702C55.1961 26.3571 57.7146 25.2155 60.5015 25.2155C63.2884 25.2155 65.773 26.3235 67.6198 28.1702C68.0898 28.6403 68.5263 29.1775 68.8957 29.7483C69.2986 30.3527 69.6008 30.9907 69.8694 31.6286L51.1336 31.6622Z" fill="white"/>
<path d="M111.032 20.5486L104.551 27.0289C102.271 24.7553 98.5797 24.7573 96.3021 27.0349C94.0244 29.3126 94.0224 33.0041 96.2961 35.2843L89.8038 41.7766C83.9419 35.9146 83.9419 26.4105 89.8038 20.5486C95.6658 14.6866 105.17 14.6866 111.032 20.5486Z" fill="white"/>
<path d="M102.776 28.804L96.2961 35.2843C98.5698 37.5644 98.5676 41.2561 96.29 43.5338C94.0123 45.8114 90.3208 45.8134 88.0406 43.5397L81.5483 50.032C87.4103 55.894 96.9144 55.894 102.776 50.032C108.638 44.1701 108.638 34.666 102.776 28.804Z" fill="white"/>
<path d="M22.4845 67.9139C21.9044 67.9139 21.41 67.809 21.0011 67.5994C20.5922 67.3862 20.2812 67.0577 20.068 66.6139C19.8549 66.1701 19.7483 65.6022 19.7483 64.9103C19.7483 64.1939 19.8689 63.6103 20.11 63.1595C20.3546 62.7053 20.6918 62.3715 21.1216 62.1584C21.555 61.9452 22.0564 61.8386 22.6261 61.8386C23.0314 61.8386 23.3809 61.8788 23.6744 61.9592C23.9715 62.0361 24.2301 62.1287 24.4502 62.237L23.9784 63.4741C23.7268 63.3727 23.4927 63.2906 23.276 63.2277C23.0594 63.1613 22.8427 63.1281 22.6261 63.1281C22.3465 63.1281 22.1141 63.1945 21.9289 63.3273C21.7437 63.4566 21.6056 63.6523 21.5148 63.9144C21.4239 64.1765 21.3785 64.505 21.3785 64.8998C21.3785 65.2877 21.4274 65.6092 21.5253 65.8643C21.6231 66.1194 21.7646 66.3099 21.9499 66.4357C22.1351 66.558 22.3605 66.6192 22.6261 66.6192C22.958 66.6192 23.2533 66.5755 23.5119 66.4881C23.7705 66.3972 24.0221 66.2714 24.2667 66.1107V67.4788C24.0221 67.6326 23.7653 67.7427 23.4962 67.809C23.2306 67.8789 22.8934 67.9139 22.4845 67.9139Z" fill="white"/>
<path d="M30.8243 63.4845C30.8243 63.7991 30.7247 64.0681 30.5255 64.2918C30.3298 64.5119 30.0397 64.6535 29.6553 64.7164V64.7583C30.0607 64.8072 30.3875 64.9488 30.6356 65.1829C30.8837 65.4135 31.0077 65.7053 31.0077 66.0583C31.0077 66.3938 30.9204 66.6943 30.7456 66.9599C30.5709 67.222 30.2931 67.4299 29.9122 67.5836C29.5313 67.7339 29.0333 67.809 28.4183 67.809H25.6296V61.9487H28.4183C28.8761 61.9487 29.2867 61.9976 29.6501 62.0955C30.0135 62.1898 30.3001 62.3488 30.5098 62.5725C30.7194 62.7961 30.8243 63.1001 30.8243 63.4845ZM29.3513 65.9744C29.3513 65.7438 29.2605 65.5778 29.0787 65.4764C28.9005 65.3716 28.6349 65.3192 28.282 65.3192H27.2284V66.703H28.3134C28.614 66.703 28.8621 66.6471 29.0578 66.5353C29.2535 66.4235 29.3513 66.2365 29.3513 65.9744ZM29.2045 63.6103C29.2045 63.4286 29.1329 63.2941 28.9896 63.2067C28.8464 63.1194 28.6349 63.0757 28.3554 63.0757H27.2284V64.2341H28.1719C28.5109 64.2341 28.7677 64.1852 28.9425 64.0874C29.1172 63.9895 29.2045 63.8305 29.2045 63.6103Z" fill="white"/>
<path d="M34.7976 61.8386C35.3392 61.8386 35.8058 61.9434 36.1971 62.1531C36.5885 62.3593 36.8908 62.6598 37.104 63.0547C37.3171 63.4496 37.4237 63.9318 37.4237 64.5015V65.2772H33.6444C33.6618 65.728 33.7964 66.0827 34.048 66.3413C34.3031 66.5964 34.656 66.724 35.1068 66.724C35.4808 66.724 35.8232 66.6855 36.1342 66.6087C36.4453 66.5318 36.765 66.4165 37.0935 66.2627V67.4998C36.8034 67.6431 36.4994 67.7479 36.1814 67.8143C35.8669 67.8807 35.4843 67.9139 35.0335 67.9139C34.4464 67.9139 33.9257 67.8056 33.4714 67.5889C33.0206 67.3722 32.6659 67.042 32.4073 66.5982C32.1522 66.1544 32.0246 65.5953 32.0246 64.9208C32.0246 64.2359 32.14 63.6663 32.3706 63.212C32.6047 62.7542 32.9297 62.4117 33.3456 62.1846C33.7614 61.9539 34.2454 61.8386 34.7976 61.8386ZM34.8081 62.9761C34.497 62.9761 34.2384 63.0757 34.0323 63.2749C33.8296 63.4741 33.7125 63.7868 33.6811 64.2132H35.9246C35.9211 63.9755 35.8774 63.7641 35.7935 63.5789C35.7131 63.3937 35.5908 63.2469 35.4266 63.1386C35.2658 63.0302 35.0597 62.9761 34.8081 62.9761Z" fill="white"/>
<path d="M47.053 61.9487L44.8933 64.7583L47.2574 67.809H45.5486L43.3155 64.8369V67.809H41.8269V64.8369L39.5938 67.809H37.885L40.2491 64.7583L38.0894 61.9487H39.7406L41.8269 64.795V61.9487H43.3155V64.795L45.4018 61.9487H47.053Z" fill="white"/>
<path d="M49.6424 61.9487V64.2656C49.6424 64.3844 49.6372 64.5347 49.6267 64.7164C49.6197 64.8946 49.6092 65.0763 49.5953 65.2615C49.5813 65.4467 49.5673 65.6127 49.5533 65.7595C49.5393 65.9063 49.5289 66.0059 49.5219 66.0583L52.2266 61.9487H54.1504V67.809H52.6041V65.4712C52.6041 65.279 52.611 65.0676 52.625 64.8369C52.639 64.6028 52.6547 64.3826 52.6722 64.1765C52.6897 63.9703 52.7019 63.8148 52.7089 63.7099L50.0146 67.809H48.0961V61.9487H49.6424Z" fill="white"/>
<path d="M57.3794 61.9487V64.2656C57.3794 64.3844 57.3741 64.5347 57.3636 64.7164C57.3566 64.8946 57.3462 65.0763 57.3322 65.2615C57.3182 65.4467 57.3042 65.6127 57.2903 65.7595C57.2763 65.9063 57.2658 66.0059 57.2588 66.0583L59.9636 61.9487H61.8873V67.809H60.341V65.4712C60.341 65.279 60.348 65.0676 60.362 64.8369C60.3759 64.6028 60.3917 64.3826 60.4091 64.1765C60.4266 63.9703 60.4388 63.8148 60.4458 63.7099L57.7515 67.809H55.833V61.9487H57.3794ZM61.447 59.4274C61.4086 59.7978 61.3037 60.1245 61.1325 60.4076C60.9613 60.6906 60.6939 60.9108 60.3305 61.0681C59.9671 61.2253 59.4778 61.3039 58.8628 61.3039C58.2303 61.3039 57.7376 61.2288 57.3846 61.0785C57.0317 60.9248 56.78 60.7081 56.6298 60.4286C56.4795 60.1455 56.3887 59.8118 56.3572 59.4274H57.7882C57.8197 59.8223 57.9193 60.0843 58.087 60.2136C58.2547 60.3394 58.5238 60.4023 58.8942 60.4023C59.2018 60.4023 59.4534 60.3325 59.6491 60.1927C59.8448 60.0529 59.9618 59.7978 60.0003 59.4274H61.447Z" fill="white"/>
<path d="M68.8485 60.0354C69.2608 60.0354 69.6278 60.1001 69.9493 60.2294C70.2708 60.3587 70.5241 60.5474 70.7093 60.7955C70.898 61.0436 70.9924 61.3459 70.9924 61.7023C70.9924 62.1951 70.8456 62.6092 70.5521 62.9446C70.262 63.2801 69.8986 63.5737 69.4618 63.8253L70.9505 65.2772C71.0972 65.0361 71.2213 64.781 71.3226 64.5119C71.4275 64.2429 71.5183 63.972 71.5952 63.6995H73.2621C73.1538 64.1013 72.9948 64.5312 72.7851 64.9889C72.5789 65.4432 72.3151 65.8713 71.9936 66.2732L73.5714 67.809H71.5952L70.9924 67.2167C70.7862 67.36 70.5643 67.4841 70.3267 67.5889C70.0925 67.6937 69.8409 67.7741 69.5718 67.83C69.3063 67.8859 69.025 67.9139 68.7279 67.9139C68.1478 67.9139 67.6498 67.823 67.234 67.6413C66.8181 67.4596 66.5001 67.2062 66.28 66.8812C66.0598 66.5528 65.9497 66.1719 65.9497 65.7385C65.9497 65.3751 66.0057 65.0641 66.1175 64.8055C66.2293 64.5434 66.3901 64.3145 66.5997 64.1188C66.8094 63.9196 67.061 63.7361 67.3546 63.5684C67.1693 63.3517 67.0208 63.1491 66.909 62.9604C66.8007 62.7717 66.722 62.5847 66.6731 62.3995C66.6277 62.2108 66.605 62.0133 66.605 61.8072C66.605 61.4437 66.6993 61.131 66.888 60.8689C67.0802 60.6033 67.3441 60.3989 67.6796 60.2556C68.0185 60.1088 68.4082 60.0354 68.8485 60.0354ZM68.2876 64.5224C68.1548 64.6238 68.0377 64.7286 67.9364 64.8369C67.8386 64.9453 67.7634 65.0606 67.711 65.1829C67.6586 65.3052 67.6324 65.4397 67.6324 65.5865C67.6324 65.894 67.7477 66.1352 67.9783 66.3099C68.209 66.4846 68.4955 66.572 68.838 66.572C69.0686 66.572 69.2836 66.544 69.4827 66.4881C69.6819 66.4322 69.8636 66.3536 70.0279 66.2522L68.2876 64.5224ZM68.838 61.2725C68.6598 61.2725 68.4885 61.3179 68.3243 61.4088C68.1635 61.4996 68.0832 61.6691 68.0832 61.9172C68.0832 62.092 68.1286 62.2632 68.2195 62.4309C68.3103 62.5952 68.4309 62.7629 68.5811 62.9341C68.8817 62.7699 69.1123 62.6057 69.2731 62.4414C69.4338 62.2737 69.5142 62.0832 69.5142 61.8701C69.5142 61.6569 69.4408 61.5049 69.294 61.414C69.1508 61.3197 68.9987 61.2725 68.838 61.2725Z" fill="white"/>
<path d="M82.3934 63.4845C82.3934 63.7991 82.2938 64.0681 82.0946 64.2918C81.8989 64.5119 81.6088 64.6535 81.2244 64.7164V64.7583C81.6298 64.8072 81.9565 64.9488 82.2047 65.1829C82.4528 65.4135 82.5768 65.7053 82.5768 66.0583C82.5768 66.3938 82.4895 66.6943 82.3147 66.9599C82.14 67.222 81.8622 67.4299 81.4813 67.5836C81.1004 67.7339 80.6024 67.809 79.9874 67.809H77.1987V61.9487H79.9874C80.4451 61.9487 80.8558 61.9976 81.2192 62.0955C81.5826 62.1898 81.8692 62.3488 82.0788 62.5725C82.2885 62.7961 82.3934 63.1001 82.3934 63.4845ZM80.9204 65.9744C80.9204 65.7438 80.8295 65.5778 80.6478 65.4764C80.4696 65.3716 80.204 65.3192 79.8511 65.3192H78.7975V66.703H79.8825C80.1831 66.703 80.4312 66.6471 80.6269 66.5353C80.8226 66.4235 80.9204 66.2365 80.9204 65.9744ZM80.7736 63.6103C80.7736 63.4286 80.702 63.2941 80.5587 63.2067C80.4154 63.1194 80.204 63.0757 79.9245 63.0757H78.7975V64.2341H79.741C80.08 64.2341 80.3368 64.1852 80.5115 64.0874C80.6863 63.9895 80.7736 63.8305 80.7736 63.6103Z" fill="white"/>
<path d="M87.7924 61.9487H89.5537L87.2316 64.7583L89.7581 67.809H87.9445L85.5489 64.8369V67.809H83.9502V61.9487H85.5489V64.795L87.7924 61.9487Z" fill="white"/>
<path d="M89.7581 61.9487H91.5089L92.6149 65.2458C92.6499 65.3506 92.6796 65.4572 92.704 65.5655C92.7285 65.6739 92.7495 65.7857 92.7669 65.901C92.7844 66.0163 92.7984 66.1369 92.8089 66.2627H92.8403C92.8613 66.074 92.8892 65.8975 92.9242 65.7333C92.9626 65.569 93.0098 65.4065 93.0657 65.2458L94.1508 61.9487H95.8649L93.3855 68.5586C93.2352 68.964 93.0395 69.3012 92.7984 69.5703C92.5573 69.8429 92.2794 70.0473 91.9649 70.1836C91.6539 70.3199 91.3115 70.388 90.9375 70.388C90.7558 70.388 90.5986 70.3775 90.4658 70.3566C90.333 70.3391 90.2194 70.3199 90.1251 70.2989V69.0304C90.1984 69.0479 90.291 69.0636 90.4029 69.0776C90.5147 69.0915 90.6318 69.0985 90.7541 69.0985C90.9777 69.0985 91.1699 69.0514 91.3307 68.957C91.4914 68.8627 91.626 68.7351 91.7343 68.5744C91.8426 68.4171 91.9282 68.2441 91.9911 68.0554L92.0855 67.7671L89.7581 61.9487Z" fill="white"/>
<path d="M99.0886 67.9139C98.5085 67.9139 98.014 67.809 97.6051 67.5994C97.1963 67.3862 96.8853 67.0577 96.6721 66.6139C96.4589 66.1701 96.3523 65.6022 96.3523 64.9103C96.3523 64.1939 96.4729 63.6103 96.714 63.1595C96.9586 62.7053 97.2959 62.3715 97.7257 62.1584C98.159 61.9452 98.6605 61.8386 99.2301 61.8386C99.6355 61.8386 99.9849 61.8788 100.278 61.9592C100.576 62.0361 100.834 62.1287 101.054 62.237L100.582 63.4741C100.331 63.3727 100.097 63.2906 99.8801 63.2277C99.6634 63.1613 99.4468 63.1281 99.2301 63.1281C98.9505 63.1281 98.7182 63.1945 98.5329 63.3273C98.3477 63.4566 98.2097 63.6523 98.1188 63.9144C98.028 64.1765 97.9826 64.505 97.9826 64.8998C97.9826 65.2877 98.0315 65.6092 98.1293 65.8643C98.2272 66.1194 98.3687 66.3099 98.5539 66.4357C98.7391 66.558 98.9645 66.6192 99.2301 66.6192C99.5621 66.6192 99.8574 66.5755 100.116 66.4881C100.375 66.3972 100.626 66.2714 100.871 66.1107V67.4788C100.626 67.6326 100.369 67.7427 100.1 67.809C99.8347 67.8789 99.4974 67.9139 99.0886 67.9139Z" fill="white"/>
<path d="M103.832 61.9487V64.2027H106.065V61.9487H107.664V67.809H106.065V65.3926H103.832V67.809H102.234V61.9487H103.832Z" fill="white"/>
<path d="M109.342 67.809V61.9487H110.94V64.2132H111.711C112.308 64.2132 112.801 64.2761 113.189 64.4019C113.58 64.5277 113.871 64.7199 114.059 64.9785C114.248 65.2336 114.342 65.5551 114.342 65.943C114.342 66.3204 114.255 66.6489 114.08 66.9284C113.905 67.208 113.629 67.4246 113.252 67.5784C112.875 67.7322 112.38 67.809 111.769 67.809H109.342ZM110.94 66.703H111.679C111.99 66.703 112.246 66.6471 112.445 66.5353C112.644 66.42 112.744 66.2295 112.744 65.9639C112.744 65.7368 112.653 65.5725 112.471 65.4712C112.289 65.3699 112.018 65.3192 111.658 65.3192H110.94V66.703ZM115.191 67.809V61.9487H116.79V67.809H115.191Z" fill="white"/>
<path d="M120.019 61.9487V64.2656C120.019 64.3844 120.014 64.5347 120.003 64.7164C119.996 64.8946 119.986 65.0763 119.972 65.2615C119.958 65.4467 119.944 65.6127 119.93 65.7595C119.916 65.9063 119.906 66.0059 119.899 66.0583L122.603 61.9487H124.527V67.809H122.981V65.4712C122.981 65.279 122.988 65.0676 123.002 64.8369C123.016 64.6028 123.031 64.3826 123.049 64.1765C123.066 63.9703 123.079 63.8148 123.086 63.7099L120.391 67.809H118.473V61.9487H120.019ZM124.087 59.4274C124.048 59.7978 123.944 60.1245 123.772 60.4076C123.601 60.6906 123.334 60.9108 122.97 61.0681C122.607 61.2253 122.118 61.3039 121.503 61.3039C120.87 61.3039 120.377 61.2288 120.024 61.0785C119.671 60.9248 119.42 60.7081 119.27 60.4286C119.119 60.1455 119.028 59.8118 118.997 59.4274H120.428C120.46 59.8223 120.559 60.0843 120.727 60.2136C120.895 60.3394 121.164 60.4023 121.534 60.4023C121.842 60.4023 122.093 60.3325 122.289 60.1927C122.485 60.0529 122.602 59.7978 122.64 59.4274H124.087Z" fill="white"/>
</svg>
